<mxfile host="app.diagrams.net" modified="2022-02-25T15:53:44.120Z" agent="5.0 (Macintosh; Intel Mac OS X 10_15_7) AppleWebKit/537.36 (KHTML, like Gecko) Chrome/98.0.4758.109 Safari/537.36" etag="PNs1vYBMG5V2UXYS5X_t" version="16.6.4" type="github">
  <diagram id="SFhN1avuoICirvUGMh-_" name="Page-1">
    <mxGraphModel dx="786" dy="1129" grid="1" gridSize="10" guides="1" tooltips="1" connect="1" arrows="1" fold="1" page="1" pageScale="1" pageWidth="850" pageHeight="1100" math="0" shadow="0">
      <root>
        <mxCell id="0" />
        <mxCell id="1" parent="0" />
        <mxCell id="7lrIo7HgWKwE6py6VGCn-1" value="ESXi" style="rounded=1;whiteSpace=wrap;html=1;" parent="1" vertex="1">
          <mxGeometry x="180" y="320" width="120" height="60" as="geometry" />
        </mxCell>
        <mxCell id="7lrIo7HgWKwE6py6VGCn-2" value="ESXi" style="rounded=1;whiteSpace=wrap;html=1;" parent="1" vertex="1">
          <mxGeometry x="190" y="330" width="120" height="60" as="geometry" />
        </mxCell>
        <mxCell id="7lrIo7HgWKwE6py6VGCn-3" value="ESXi" style="rounded=1;whiteSpace=wrap;html=1;" parent="1" vertex="1">
          <mxGeometry x="200" y="340" width="120" height="60" as="geometry" />
        </mxCell>
        <mxCell id="7lrIo7HgWKwE6py6VGCn-4" value="ESXi" style="rounded=1;whiteSpace=wrap;html=1;" parent="1" vertex="1">
          <mxGeometry x="450" y="320" width="120" height="60" as="geometry" />
        </mxCell>
        <mxCell id="7lrIo7HgWKwE6py6VGCn-5" value="ESXi" style="rounded=1;whiteSpace=wrap;html=1;" parent="1" vertex="1">
          <mxGeometry x="460" y="330" width="120" height="60" as="geometry" />
        </mxCell>
        <mxCell id="7lrIo7HgWKwE6py6VGCn-6" value="ESXi" style="rounded=1;whiteSpace=wrap;html=1;" parent="1" vertex="1">
          <mxGeometry x="470" y="340" width="120" height="60" as="geometry" />
        </mxCell>
        <mxCell id="7lrIo7HgWKwE6py6VGCn-7" value="ESXi" style="rounded=1;whiteSpace=wrap;html=1;" parent="1" vertex="1">
          <mxGeometry x="200" y="845" width="120" height="60" as="geometry" />
        </mxCell>
        <mxCell id="7lrIo7HgWKwE6py6VGCn-8" value="ESXi" style="rounded=1;whiteSpace=wrap;html=1;" parent="1" vertex="1">
          <mxGeometry x="210" y="855" width="120" height="60" as="geometry" />
        </mxCell>
        <mxCell id="7lrIo7HgWKwE6py6VGCn-9" value="ESXi" style="rounded=1;whiteSpace=wrap;html=1;" parent="1" vertex="1">
          <mxGeometry x="220" y="865" width="120" height="60" as="geometry" />
        </mxCell>
        <mxCell id="7lrIo7HgWKwE6py6VGCn-10" value="ESXi" style="rounded=1;whiteSpace=wrap;html=1;" parent="1" vertex="1">
          <mxGeometry x="460" y="845" width="120" height="60" as="geometry" />
        </mxCell>
        <mxCell id="7lrIo7HgWKwE6py6VGCn-11" value="ESXi" style="rounded=1;whiteSpace=wrap;html=1;" parent="1" vertex="1">
          <mxGeometry x="470" y="855" width="120" height="60" as="geometry" />
        </mxCell>
        <mxCell id="7lrIo7HgWKwE6py6VGCn-12" value="ESXi" style="rounded=1;whiteSpace=wrap;html=1;" parent="1" vertex="1">
          <mxGeometry x="480" y="865" width="120" height="60" as="geometry" />
        </mxCell>
        <mxCell id="7lrIo7HgWKwE6py6VGCn-13" value="ESXi" style="rounded=1;whiteSpace=wrap;html=1;" parent="1" vertex="1">
          <mxGeometry x="325" y="575" width="120" height="60" as="geometry" />
        </mxCell>
        <mxCell id="7lrIo7HgWKwE6py6VGCn-14" value="ESXi" style="rounded=1;whiteSpace=wrap;html=1;" parent="1" vertex="1">
          <mxGeometry x="335" y="585" width="120" height="60" as="geometry" />
        </mxCell>
        <mxCell id="7lrIo7HgWKwE6py6VGCn-15" value="ESXi" style="rounded=1;whiteSpace=wrap;html=1;" parent="1" vertex="1">
          <mxGeometry x="345" y="595" width="120" height="60" as="geometry" />
        </mxCell>
        <mxCell id="7lrIo7HgWKwE6py6VGCn-18" value="&lt;b&gt;RDU&lt;/b&gt;" style="rounded=0;whiteSpace=wrap;html=1;fillColor=none;labelPadding=0;labelPosition=center;verticalLabelPosition=top;align=center;verticalAlign=bottom;" parent="1" vertex="1">
          <mxGeometry x="280" y="540" width="210" height="150" as="geometry" />
        </mxCell>
        <mxCell id="7lrIo7HgWKwE6py6VGCn-22" value="&lt;b&gt;ATL&lt;/b&gt;" style="rounded=0;whiteSpace=wrap;html=1;fillColor=none;labelPadding=0;labelPosition=center;verticalLabelPosition=top;align=center;verticalAlign=bottom;" parent="1" vertex="1">
          <mxGeometry x="145" y="285" width="210" height="150" as="geometry" />
        </mxCell>
        <mxCell id="7lrIo7HgWKwE6py6VGCn-23" value="&lt;b&gt;JFK&lt;/b&gt;" style="rounded=0;whiteSpace=wrap;html=1;fillColor=none;labelPadding=0;labelPosition=center;verticalLabelPosition=top;align=center;verticalAlign=bottom;" parent="1" vertex="1">
          <mxGeometry x="415" y="285" width="210" height="150" as="geometry" />
        </mxCell>
        <mxCell id="7lrIo7HgWKwE6py6VGCn-25" value="&lt;b&gt;DFW&lt;/b&gt;" style="rounded=0;whiteSpace=wrap;html=1;fillColor=none;labelPadding=0;labelPosition=center;verticalLabelPosition=top;align=center;verticalAlign=bottom;" parent="1" vertex="1">
          <mxGeometry x="155" y="820" width="210" height="150" as="geometry" />
        </mxCell>
        <mxCell id="7lrIo7HgWKwE6py6VGCn-28" value="&lt;b&gt;LAX&lt;/b&gt;" style="rounded=0;whiteSpace=wrap;html=1;fillColor=none;labelPadding=0;labelPosition=center;verticalLabelPosition=top;align=center;verticalAlign=bottom;" parent="1" vertex="1">
          <mxGeometry x="425" y="810" width="210" height="150" as="geometry" />
        </mxCell>
        <mxCell id="PBb1DFynOF-In5bDilbo-1" value="vRealize" style="rounded=1;whiteSpace=wrap;html=1;fillColor=#ffe6cc;strokeColor=#d79b00;" vertex="1" parent="1">
          <mxGeometry x="100" y="510" width="70" height="20" as="geometry" />
        </mxCell>
        <mxCell id="PBb1DFynOF-In5bDilbo-3" value="VCSA" style="rounded=1;whiteSpace=wrap;html=1;fillColor=#ffe6cc;strokeColor=#d79b00;" vertex="1" parent="1">
          <mxGeometry x="100" y="530" width="70" height="20" as="geometry" />
        </mxCell>
        <mxCell id="PBb1DFynOF-In5bDilbo-4" value="VCSA" style="rounded=1;whiteSpace=wrap;html=1;fillColor=#ffe6cc;strokeColor=#d79b00;" vertex="1" parent="1">
          <mxGeometry x="75" y="285" width="70" height="20" as="geometry" />
        </mxCell>
        <mxCell id="PBb1DFynOF-In5bDilbo-5" value="VCSA" style="rounded=1;whiteSpace=wrap;html=1;fillColor=#ffe6cc;strokeColor=#d79b00;" vertex="1" parent="1">
          <mxGeometry x="625" y="285" width="70" height="20" as="geometry" />
        </mxCell>
        <mxCell id="PBb1DFynOF-In5bDilbo-6" value="VCSA" style="rounded=1;whiteSpace=wrap;html=1;fillColor=#ffe6cc;strokeColor=#d79b00;" vertex="1" parent="1">
          <mxGeometry x="490" y="540" width="70" height="20" as="geometry" />
        </mxCell>
        <mxCell id="PBb1DFynOF-In5bDilbo-7" value="VCSA" style="rounded=1;whiteSpace=wrap;html=1;fillColor=#ffe6cc;strokeColor=#d79b00;" vertex="1" parent="1">
          <mxGeometry x="85" y="820" width="70" height="20" as="geometry" />
        </mxCell>
        <mxCell id="PBb1DFynOF-In5bDilbo-8" value="VCSA" style="rounded=1;whiteSpace=wrap;html=1;fillColor=#ffe6cc;strokeColor=#d79b00;" vertex="1" parent="1">
          <mxGeometry x="635" y="810" width="70" height="20" as="geometry" />
        </mxCell>
      </root>
    </mxGraphModel>
  </diagram>
</mxfile>
